PathFileType	4	(x/y/z)	S09_PSF_T08
DataRate	CameraRate	NumFrames	NumMarkers	Units	OrigDataRate	OrigDataStartFrame	OrigNumFrames
240	240	4	51	mm	240	119	473
Frame#	Time	Sternum			R.Acromium			L.Acromium			Top.Head			R.ASIS			L.ASIS			R.PSIS			L.PSIS			R.Great.Tro			L.Great.Tro			R.Iliac.Crest			L.Iliac.Crest			V.Sacral			R.Thigh.Upper.Post			R.Thigh.Lower.Ant			R.Thigh.Lower.Post			R.Thigh.Upper.Ant			R.Knee.Lat			R.Knee.Med			R.Shank.Upper.Post			R.Shank.Lower.Ant			R.Shank.Lower.Post			R.Shank.Upper.Ant			R.Ankle.Lat			R.Ankle.Med			R.Heel.Upper			R.Heel.Med			R.Heel.Lat			R.Toe.Lat			R.Toe.Med			R.Toe.Tip			L.Thigh.Upper.Post			L.Thigh.Lower.Ant			L.Thigh.Lower.Post			L.Thigh.Upper.Ant			L.Knee.Lat			L.Knee.Med			L.Shank.Upper.Post			L.Shank.Lower.Ant			L.Shank.Lower.Post			L.Shank.Upper.Ant			L.Ankle.Lat			L.Ankle.Med			L.Heel.Upper			L.Heel.Med			L.Heel.Lat			L.Toe.Lat			L.Toe.Med			L.Toe.Tip			Cervical.Spine			Back			
		X1	Y1	Z1	X2	Y2	Z2	X3	Y3	Z3	X4	Y4	Z4	X5	Y5	Z5	X6	Y6	Z6	X7	Y7	Z7	X8	Y8	Z8	X9	Y9	Z9	X10	Y10	Z10	X11	Y11	Z11	X12	Y12	Z12	X13	Y13	Z13	X14	Y14	Z14	X15	Y15	Z15	X16	Y16	Z16	X17	Y17	Z17	X18	Y18	Z18	X19	Y19	Z19	X20	Y20	Z20	X21	Y21	Z21	X22	Y22	Z22	X23	Y23	Z23	X24	Y24	Z24	X25	Y25	Z25	X26	Y26	Z26	X27	Y27	Z27	X28	Y28	Z28	X29	Y29	Z29	X30	Y30	Z30	X31	Y31	Z31	X32	Y32	Z32	X33	Y33	Z33	X34	Y34	Z34	X35	Y35	Z35	X36	Y36	Z36	X37	Y37	Z37	X38	Y38	Z38	X39	Y39	Z39	X40	Y40	Z40	X41	Y41	Z41	X42	Y42	Z42	X43	Y43	Z43	X44	Y44	Z44	X45	Y45	Z45	X46	Y46	Z46	X47	Y47	Z47	X48	Y48	Z48	X49	Y49	Z49	X50	Y50	Z50	X51	Y51	Z51	

119	0.49167	NaN	NaN	NaN	-1119.7	1433.4	481.42	-1101.3	1439.6	165.33	-1092.1	1739.5	323.96	-1019.5	1023.5	430.07	-1034.8	1021	185.7	-1252.6	1042.9	367.57	-1247.8	1051.7	278.13	-1091.2	935.74	507.92	-1120.3	933.71	123.46	-1109	1099.7	478.41	-1138.2	1119.5	158.52	-1267.8	1012.2	317.18	-1011.7	695.52	497.76	-909.84	623.69	459.98	-986.13	606.66	476.1	-941.64	706.98	483.96	-910.29	545.26	460.01	NaN	NaN	NaN	-936.58	360.8	469.14	-853.55	323.43	473.37	-914.66	287.99	464.63	-879.96	392.55	479.7	-832.47	114.6	462.67	-791.61	139.59	381.16	-871.21	74.959	401.5	-843.83	51.637	374.03	-862.36	44.877	435.69	-720.38	83.639	514.58	-663.21	114.4	422.55	-634.89	143.07	473.59	-1224.5	692.77	190.64	-1160.4	583.08	191.94	-1225.2	604.7	212.01	-1158.5	669.56	166.01	-1190.7	507.56	207.2	-1162.3	521.36	337.62	-1262.8	383.01	204.09	-1217.7	284.02	223.88	-1274.6	309.04	215.18	-1203.7	359.76	211.42	-1296.3	108.75	255.63	-1281.3	108.06	348.32	-1373.1	75.841	309.21	-1362.9	51.842	340.59	-1372.3	48.825	279.77	-1199	42.312	227.25	-1163	40.326	336.37	-1110.7	53.887	277.81	-1192	1485.8	330.5	-1240.5	1220.7	307.48
120	0.49583	NaN	NaN	NaN	-1114.7	1432.5	481.48	-1096.2	1438.6	165.38	-1087	1738.6	323.99	-1014	1022.3	430	-1030	1020.3	185.7	-1247.3	1042	368.15	-1242.8	1051.1	278.72	-1085.9	934.35	507.82	-1116.2	933.26	123.49	-1103.5	1098.5	478.58	-1133.6	1118.8	158.85	-1262.7	1011.4	317.76	-1008	693.68	497.5	-906.66	621.2	459.6	-983.07	604.67	475.71	-937.89	704.62	483.43	-907.01	543.64	459.58	NaN	NaN	NaN	-928.68	359.05	468.81	-844.7	323.76	472.58	-904.92	286.75	464.3	-872.82	392.2	478.96	-817.39	115.25	461.97	-778.25	141.16	380.37	-856.05	74.28	401	-828.13	51.73	373.5	-846.08	44.427	435.25	-704.53	87.061	513.21	-648.86	119.48	420.85	-621	148.92	471.7	-1221.4	692.89	191.15	-1157.8	582.8	191.86	-1222.5	604.81	212.39	-1155.6	669.33	166.1	-1188.4	507.39	207.2	-1159.3	520.87	337.43	-1261.1	383.19	204.18	-1216.5	283.93	223.84	-1273.2	309.35	215.21	-1202.1	359.59	211.36	-1296	109	255.79	-1280.9	108.22	348.47	-1373	76.005	309.37	-1362.8	51.953	340.73	-1372.2	49.02	279.91	-1199	42.315	227.31	-1162.9	40.181	336.37	-1110.5	53.609	277.81	-1186.9	1484.8	330.56	-1235.5	1219.7	307.65
121	0.5	NaN	NaN	NaN	-1109.7	1431.6	481.54	-1091.2	1437.6	165.44	-1081.9	1737.7	324.03	-1008.6	1021.1	429.93	-1025.1	1019.6	185.7	-1241.9	1041.1	368.74	-1237.7	1050.3	279.31	-1080.6	932.93	507.75	-1112	932.77	123.53	-1098	1097.4	478.75	-1128.9	1118.1	159.18	-1257.6	1010.7	318.36	-1004.2	691.85	497.27	-903.41	618.73	459.25	-979.94	602.69	475.34	-934.08	702.28	482.95	-903.65	542.05	459.2	NaN	NaN	NaN	-920.86	357.43	468.51	-836.01	324.13	471.78	-895.35	285.64	463.96	-865.75	391.9	478.21	-802.66	115.98	461.2	-765.32	142.84	379.5	-841.34	73.817	400.41	-812.93	52.032	372.86	-830.3	44.2	434.7	-689.18	90.512	511.73	-635.04	124.52	419.04	-607.61	154.67	469.7	-1218.2	692.97	191.65	-1155.1	582.5	191.79	-1219.7	604.9	212.77	-1152.6	669.07	166.2	-1186	507.19	207.2	-1156.2	520.35	337.24	-1259.3	383.36	204.26	-1215.3	283.82	223.8	-1271.7	309.64	215.24	-1200.5	359.41	211.31	-1295.7	109.26	255.94	-1280.6	108.39	348.63	-1372.9	76.198	309.53	-1362.7	52.089	340.86	-1372.1	49.236	280.04	-1198.9	42.317	227.36	-1162.8	40.038	336.37	-1110.4	53.325	277.81	-1181.8	1483.9	330.63	-1230.5	1218.8	307.84
122	0.50417	NaN	NaN	NaN	-1104.8	1430.6	481.63	-1086.2	1436.5	165.51	-1076.8	1736.7	324.07	-1003.1	1019.8	429.86	-1020.1	1018.8	185.71	-1236.5	1040.2	369.35	-1232.7	1049.6	279.92	-1075.2	931.49	507.7	-1107.7	932.26	123.57	-1092.4	1096.2	478.92	-1124.2	1117.3	159.52	-1252.5	1009.9	318.97	-1000.4	690.03	497.08	-900.06	616.3	458.92	-976.72	600.74	475	-930.19	699.97	482.52	-900.19	540.52	458.86	NaN	NaN	NaN	-913.11	355.91	468.22	-827.47	324.53	470.95	-885.96	284.65	463.61	-858.75	391.62	477.47	-788.35	116.76	460.34	-752.84	144.58	378.55	-827.11	73.542	399.74	-798.25	52.507	372.1	-815.04	44.159	434.05	-674.38	93.941	510.14	-621.77	129.48	417.12	-594.74	160.27	467.6	-1215	693.03	192.14	-1152.4	582.17	191.71	-1216.8	604.96	213.13	-1149.6	668.79	166.29	-1183.6	506.96	207.21	-1153.1	519.8	337.06	-1257.5	383.52	204.34	-1214	283.69	223.77	-1270.2	309.92	215.28	-1198.8	359.2	211.26	-1295.4	109.54	256.08	-1280.2	108.57	348.77	-1372.8	76.421	309.67	-1362.6	52.254	340.99	-1372.1	49.477	280.16	-1198.9	42.318	227.41	-1162.7	39.898	336.37	-1110.3	53.035	277.82	-1176.6	1482.9	330.72	-1225.5	1217.7	308.06
